<svg xmlns="http://www.w3.org/2000/svg" viewBox="0 0 2010 2010" id="VideoCam">
  <path fill="#ea4335" d="M1544.47,1269.15c-7.9,0-15.79-.96-23.48-2.87l-152.45-37.77c-23.17-5.74-43.94-19.95-58.49-40-14.01-19.32-21.73-43.43-21.73-67.9v-233.3c0-24.75,7.88-49.08,22.17-68.51,14.86-20.19,35.99-34.3,59.51-39.75l154.06-35.68c7.22-1.67,14.63-2.52,22.01-2.52h64.61c57.18,0,103.7,49.69,103.7,110.78v305.28c0,28.53-10.11,55.63-28.48,76.29-19.2,21.61-45.15,33.84-73.08,34.46h0l-66.22,1.46c-.71,.02-1.42,.02-2.13,.02Z" class="colorf68c47 svgShape"></path>
  <path fill="#fbbc05" d="M1199.08,1426H451.4c-85.89,0-155.77-69.88-155.77-155.77V739.77c0-85.89,69.88-155.77,155.77-155.77h747.68c85.89,0,155.77,69.88,155.77,155.77v530.45c0,85.89-69.88,155.77-155.77,155.77Z" class="colorfcd2b6 svgShape"></path>
  <path fill="#ea4335" d="M815.53,1128.07h-282.43c-56.14,0-101.81-45.67-101.81-101.81v-199.64c0-56.14,45.67-101.81,101.81-101.81h282.43c56.14,0,101.81,45.67,101.81,101.81v199.64c0,56.14-45.67,101.81-101.81,101.81Z" class="colorf68c47 svgShape"></path>
</svg>
